<svg width="22" height="22" viewBox="0 0 22 22" fill="none" xmlns="http://www.w3.org/2000/svg">
<path d="M19.0441 19.0025L17.8712 6.12562C17.8396 5.77087 17.5426 5.5 17.1865 5.5H15.124V4.125C15.124 3.0195 14.695 1.98275 13.9181 1.20587C13.1536 0.44 12.0894 0 10.999 0C8.72474 0 6.87399 1.85075 6.87399 4.125V5.5H4.81149C4.45537 5.5 4.15837 5.77087 4.12674 6.12562L2.95662 19.0011C2.88649 19.7698 3.14499 20.5356 3.66474 21.1049C4.18449 21.6741 4.92424 22 5.69562 22H16.3037C17.0737 22 17.8135 21.6741 18.3332 21.1063C18.8544 20.537 19.1115 19.7697 19.0441 19.0025ZM13.749 5.5H8.24899V4.125C8.24899 2.60837 9.48237 1.375 10.999 1.375C11.7277 1.375 12.4372 1.6665 12.946 2.17663C13.4644 2.695 13.749 3.38663 13.749 4.125V5.5Z" fill="white"/>
</svg>
