<svg width="22" height="22" viewBox="0 0 22 22" fill="none" xmlns="http://www.w3.org/2000/svg">
<g clip-path="url(#clip0_21_40)">
<path d="M10.8432 10.5975C12.2991 10.5975 13.5598 10.0753 14.5899 9.04505C15.6199 8.01498 16.1421 6.75463 16.1421 5.29856C16.1421 3.843 15.6199 2.58248 14.5897 1.55207C13.5595 0.522169 12.2989 0 10.8432 0C9.38715 0 8.12679 0.522169 7.09672 1.55224C6.06665 2.58231 5.54431 3.84283 5.54431 5.29856C5.54431 6.75463 6.06665 8.01515 7.09689 9.04522C8.12713 10.0751 9.38765 10.5975 10.8432 10.5975Z" fill="white"/>
<path d="M20.1148 16.9169C20.0851 16.4882 20.025 16.0206 19.9366 15.5268C19.8473 15.0293 19.7323 14.559 19.5947 14.1291C19.4525 13.6848 19.2592 13.2461 19.0202 12.8256C18.7721 12.3892 18.4807 12.0092 18.1537 11.6965C17.8118 11.3694 17.3932 11.1064 16.9092 10.9145C16.4268 10.7237 15.8922 10.627 15.3203 10.627C15.0957 10.627 14.8786 10.7191 14.4591 10.9922C14.201 11.1606 13.899 11.3553 13.562 11.5706C13.2738 11.7543 12.8834 11.9263 12.4011 12.0821C11.9307 12.2343 11.453 12.3115 10.9815 12.3115C10.51 12.3115 10.0325 12.2343 9.56152 12.0821C9.07981 11.9265 8.6894 11.7544 8.40154 11.5708C8.06769 11.3575 7.76557 11.1628 7.50356 10.9921C7.08462 10.719 6.86726 10.6268 6.64268 10.6268C6.07066 10.6268 5.53624 10.7237 5.05402 10.9147C4.57029 11.1062 4.15151 11.3692 3.80927 11.6967C3.48248 12.0095 3.19093 12.3894 2.94319 12.8256C2.70434 13.2461 2.51098 13.6847 2.36865 14.1293C2.23118 14.5591 2.11621 15.0293 2.02692 15.5268C1.93846 16.0199 1.87837 16.4877 1.84866 16.9174C1.81946 17.3383 1.80469 17.7752 1.80469 18.2165C1.80469 19.3649 2.16975 20.2946 2.88964 20.9802C3.60064 21.6568 4.54142 22.0001 5.68546 22.0001H16.2786C17.4226 22.0001 18.363 21.657 19.0742 20.9802C19.7943 20.2951 20.1593 19.3652 20.1593 18.2163C20.1592 17.773 20.1442 17.3358 20.1148 16.9169Z" fill="white"/>
</g>
<defs>
<clipPath id="clip0_21_40">
<rect width="21.9999" height="22" fill="white"/>
</clipPath>
</defs>
</svg>
